<mxfile host="app.diagrams.net" agent="Mozilla/5.0 (Macintosh; Intel Mac OS X 10_15_7) AppleWebKit/537.36 (KHTML, like Gecko) Chrome/127.0.0.0 Safari/537.36" version="24.7.6">
  <diagram name="Page-1" id="UulE6u7VjWSrpfEL_DmW">
    <mxGraphModel dx="3115" dy="598" grid="1" gridSize="10" guides="1" tooltips="1" connect="1" arrows="1" fold="1" page="1" pageScale="1" pageWidth="827" pageHeight="1169" math="0" shadow="0">
      <root>
        <mxCell id="0" />
        <mxCell id="1" parent="0" />
        <mxCell id="OkM7V425J6L5PL9TbQG4-21" value="Application running on multiple nodes" style="rounded=1;whiteSpace=wrap;html=1;sketch=1;hachureGap=4;jiggle=2;curveFitting=1;fontFamily=Architects Daughter;fontSource=https%3A%2F%2Ffonts.googleapis.com%2Fcss%3Ffamily%3DArchitects%2BDaughter;" parent="1" vertex="1">
          <mxGeometry x="-880" y="690" width="120" height="60" as="geometry" />
        </mxCell>
        <mxCell id="A5gDfUTgFIgMlFk51IUg-9" style="edgeStyle=orthogonalEdgeStyle;rounded=0;sketch=1;hachureGap=4;jiggle=2;curveFitting=1;orthogonalLoop=1;jettySize=auto;html=1;exitX=1;exitY=0.5;exitDx=0;exitDy=0;entryX=0;entryY=0.5;entryDx=0;entryDy=0;fontFamily=Architects Daughter;fontSource=https%3A%2F%2Ffonts.googleapis.com%2Fcss%3Ffamily%3DArchitects%2BDaughter;" edge="1" parent="1" source="OkM7V425J6L5PL9TbQG4-22" target="OkM7V425J6L5PL9TbQG4-28">
          <mxGeometry relative="1" as="geometry" />
        </mxCell>
        <mxCell id="OkM7V425J6L5PL9TbQG4-22" value="Application running on multiple nodes" style="rounded=1;whiteSpace=wrap;html=1;sketch=1;hachureGap=4;jiggle=2;curveFitting=1;fontFamily=Architects Daughter;fontSource=https%3A%2F%2Ffonts.googleapis.com%2Fcss%3Ffamily%3DArchitects%2BDaughter;" parent="1" vertex="1">
          <mxGeometry x="-880" y="550" width="120" height="60" as="geometry" />
        </mxCell>
        <mxCell id="OkM7V425J6L5PL9TbQG4-23" value="Application running on multiple nodes" style="rounded=1;whiteSpace=wrap;html=1;sketch=1;hachureGap=4;jiggle=2;curveFitting=1;fontFamily=Architects Daughter;fontSource=https%3A%2F%2Ffonts.googleapis.com%2Fcss%3Ffamily%3DArchitects%2BDaughter;" parent="1" vertex="1">
          <mxGeometry x="-880" y="470" width="120" height="60" as="geometry" />
        </mxCell>
        <mxCell id="OkM7V425J6L5PL9TbQG4-24" value="Node 1" style="text;html=1;align=center;verticalAlign=middle;resizable=0;points=[];autosize=1;strokeColor=none;fillColor=none;fontFamily=Architects Daughter;fontSource=https%3A%2F%2Ffonts.googleapis.com%2Fcss%3Ffamily%3DArchitects%2BDaughter;" parent="1" vertex="1">
          <mxGeometry x="-850" y="450" width="60" height="30" as="geometry" />
        </mxCell>
        <mxCell id="OkM7V425J6L5PL9TbQG4-26" value="Node 2" style="text;html=1;align=center;verticalAlign=middle;resizable=0;points=[];autosize=1;strokeColor=none;fillColor=none;fontFamily=Architects Daughter;fontSource=https%3A%2F%2Ffonts.googleapis.com%2Fcss%3Ffamily%3DArchitects%2BDaughter;" parent="1" vertex="1">
          <mxGeometry x="-850" y="530" width="60" height="30" as="geometry" />
        </mxCell>
        <mxCell id="OkM7V425J6L5PL9TbQG4-27" value="Node n" style="text;html=1;align=center;verticalAlign=middle;resizable=0;points=[];autosize=1;strokeColor=none;fillColor=none;fontFamily=Architects Daughter;fontSource=https%3A%2F%2Ffonts.googleapis.com%2Fcss%3Ffamily%3DArchitects%2BDaughter;" parent="1" vertex="1">
          <mxGeometry x="-850" y="670" width="60" height="30" as="geometry" />
        </mxCell>
        <mxCell id="A5gDfUTgFIgMlFk51IUg-33" style="edgeStyle=orthogonalEdgeStyle;rounded=0;sketch=1;hachureGap=4;jiggle=2;curveFitting=1;orthogonalLoop=1;jettySize=auto;html=1;exitX=1;exitY=0.25;exitDx=0;exitDy=0;fontFamily=Architects Daughter;fontSource=https%3A%2F%2Ffonts.googleapis.com%2Fcss%3Ffamily%3DArchitects%2BDaughter;" edge="1" parent="1" source="OkM7V425J6L5PL9TbQG4-28" target="A5gDfUTgFIgMlFk51IUg-18">
          <mxGeometry relative="1" as="geometry" />
        </mxCell>
        <mxCell id="A5gDfUTgFIgMlFk51IUg-34" style="edgeStyle=orthogonalEdgeStyle;rounded=0;sketch=1;hachureGap=4;jiggle=2;curveFitting=1;orthogonalLoop=1;jettySize=auto;html=1;exitX=1;exitY=0.5;exitDx=0;exitDy=0;entryX=0;entryY=0.5;entryDx=0;entryDy=0;fontFamily=Architects Daughter;fontSource=https%3A%2F%2Ffonts.googleapis.com%2Fcss%3Ffamily%3DArchitects%2BDaughter;" edge="1" parent="1" source="OkM7V425J6L5PL9TbQG4-28" target="A5gDfUTgFIgMlFk51IUg-22">
          <mxGeometry relative="1" as="geometry" />
        </mxCell>
        <mxCell id="A5gDfUTgFIgMlFk51IUg-35" style="edgeStyle=orthogonalEdgeStyle;rounded=0;sketch=1;hachureGap=4;jiggle=2;curveFitting=1;orthogonalLoop=1;jettySize=auto;html=1;exitX=1;exitY=0.75;exitDx=0;exitDy=0;entryX=0;entryY=0.5;entryDx=0;entryDy=0;fontFamily=Architects Daughter;fontSource=https%3A%2F%2Ffonts.googleapis.com%2Fcss%3Ffamily%3DArchitects%2BDaughter;" edge="1" parent="1" source="OkM7V425J6L5PL9TbQG4-28" target="A5gDfUTgFIgMlFk51IUg-23">
          <mxGeometry relative="1" as="geometry" />
        </mxCell>
        <mxCell id="OkM7V425J6L5PL9TbQG4-28" value="" style="rounded=0;whiteSpace=wrap;html=1;sketch=1;hachureGap=4;jiggle=2;curveFitting=1;fontFamily=Architects Daughter;fontSource=https%3A%2F%2Ffonts.googleapis.com%2Fcss%3Ffamily%3DArchitects%2BDaughter;" parent="1" vertex="1">
          <mxGeometry x="-726.25" y="470" width="86.25" height="280" as="geometry" />
        </mxCell>
        <mxCell id="A5gDfUTgFIgMlFk51IUg-38" style="edgeStyle=orthogonalEdgeStyle;rounded=0;sketch=1;hachureGap=4;jiggle=2;curveFitting=1;orthogonalLoop=1;jettySize=auto;html=1;exitX=1;exitY=0.75;exitDx=0;exitDy=0;entryX=0;entryY=0.75;entryDx=0;entryDy=0;fontFamily=Architects Daughter;fontSource=https%3A%2F%2Ffonts.googleapis.com%2Fcss%3Ffamily%3DArchitects%2BDaughter;" edge="1" parent="1" source="OkM7V425J6L5PL9TbQG4-33" target="OkM7V425J6L5PL9TbQG4-36">
          <mxGeometry relative="1" as="geometry" />
        </mxCell>
        <mxCell id="A5gDfUTgFIgMlFk51IUg-39" style="edgeStyle=orthogonalEdgeStyle;rounded=0;sketch=1;hachureGap=4;jiggle=2;curveFitting=1;orthogonalLoop=1;jettySize=auto;html=1;exitX=1;exitY=0.5;exitDx=0;exitDy=0;entryX=0;entryY=0.5;entryDx=0;entryDy=0;fontFamily=Architects Daughter;fontSource=https%3A%2F%2Ffonts.googleapis.com%2Fcss%3Ffamily%3DArchitects%2BDaughter;" edge="1" parent="1" source="OkM7V425J6L5PL9TbQG4-33" target="OkM7V425J6L5PL9TbQG4-36">
          <mxGeometry relative="1" as="geometry" />
        </mxCell>
        <mxCell id="OkM7V425J6L5PL9TbQG4-33" value="Mnesia&lt;br&gt;(distributed data)" style="rounded=1;whiteSpace=wrap;html=1;sketch=1;hachureGap=4;jiggle=2;curveFitting=1;fontFamily=Architects Daughter;fontSource=https%3A%2F%2Ffonts.googleapis.com%2Fcss%3Ffamily%3DArchitects%2BDaughter;direction=south;" parent="1" vertex="1">
          <mxGeometry x="-33" y="480" width="60" height="120" as="geometry" />
        </mxCell>
        <mxCell id="A5gDfUTgFIgMlFk51IUg-40" style="edgeStyle=orthogonalEdgeStyle;rounded=0;sketch=1;hachureGap=4;jiggle=2;curveFitting=1;orthogonalLoop=1;jettySize=auto;html=1;exitX=1;exitY=0.75;exitDx=0;exitDy=0;entryX=0;entryY=0.75;entryDx=0;entryDy=0;fontFamily=Architects Daughter;fontSource=https%3A%2F%2Ffonts.googleapis.com%2Fcss%3Ffamily%3DArchitects%2BDaughter;" edge="1" parent="1" source="OkM7V425J6L5PL9TbQG4-36" target="OkM7V425J6L5PL9TbQG4-37">
          <mxGeometry relative="1" as="geometry" />
        </mxCell>
        <mxCell id="A5gDfUTgFIgMlFk51IUg-41" style="edgeStyle=orthogonalEdgeStyle;rounded=0;sketch=1;hachureGap=4;jiggle=2;curveFitting=1;orthogonalLoop=1;jettySize=auto;html=1;exitX=1;exitY=0.5;exitDx=0;exitDy=0;entryX=0;entryY=0.5;entryDx=0;entryDy=0;fontFamily=Architects Daughter;fontSource=https%3A%2F%2Ffonts.googleapis.com%2Fcss%3Ffamily%3DArchitects%2BDaughter;" edge="1" parent="1" source="OkM7V425J6L5PL9TbQG4-36" target="OkM7V425J6L5PL9TbQG4-37">
          <mxGeometry relative="1" as="geometry" />
        </mxCell>
        <mxCell id="OkM7V425J6L5PL9TbQG4-36" value="Mnesia&lt;br&gt;(distributed data) Replica 1" style="rounded=1;whiteSpace=wrap;html=1;sketch=1;hachureGap=4;jiggle=2;curveFitting=1;fontFamily=Architects Daughter;fontSource=https%3A%2F%2Ffonts.googleapis.com%2Fcss%3Ffamily%3DArchitects%2BDaughter;direction=south;" parent="1" vertex="1">
          <mxGeometry x="-33" y="617.17" width="60" height="60" as="geometry" />
        </mxCell>
        <mxCell id="OkM7V425J6L5PL9TbQG4-37" value="Mnesia&lt;br&gt;(distributed data) Replica 2" style="rounded=1;whiteSpace=wrap;html=1;sketch=1;hachureGap=4;jiggle=2;curveFitting=1;fontFamily=Architects Daughter;fontSource=https%3A%2F%2Ffonts.googleapis.com%2Fcss%3Ffamily%3DArchitects%2BDaughter;direction=south;" parent="1" vertex="1">
          <mxGeometry x="-33" y="692.17" width="60" height="70" as="geometry" />
        </mxCell>
        <mxCell id="A5gDfUTgFIgMlFk51IUg-2" value="" style="endArrow=none;dashed=1;html=1;rounded=0;sketch=1;hachureGap=4;jiggle=2;curveFitting=1;fontFamily=Architects Daughter;fontSource=https%3A%2F%2Ffonts.googleapis.com%2Fcss%3Ffamily%3DArchitects%2BDaughter;" edge="1" parent="1">
          <mxGeometry width="50" height="50" relative="1" as="geometry">
            <mxPoint x="-830" y="660" as="sourcePoint" />
            <mxPoint x="-830" y="630" as="targetPoint" />
          </mxGeometry>
        </mxCell>
        <mxCell id="A5gDfUTgFIgMlFk51IUg-5" value="url&lt;br&gt;domain" style="strokeWidth=2;html=1;shape=mxgraph.flowchart.direct_data;whiteSpace=wrap;sketch=1;hachureGap=4;jiggle=2;curveFitting=1;fontFamily=Architects Daughter;fontSource=https%3A%2F%2Ffonts.googleapis.com%2Fcss%3Ffamily%3DArchitects%2BDaughter;rotation=-89;" vertex="1" parent="1">
          <mxGeometry x="-725.88" y="634.37" width="85" height="40" as="geometry" />
        </mxCell>
        <mxCell id="A5gDfUTgFIgMlFk51IUg-6" style="edgeStyle=orthogonalEdgeStyle;rounded=0;sketch=1;hachureGap=4;jiggle=2;curveFitting=1;orthogonalLoop=1;jettySize=auto;html=1;exitX=1;exitY=0.5;exitDx=0;exitDy=0;entryX=0.013;entryY=0.108;entryDx=0;entryDy=0;entryPerimeter=0;fontFamily=Architects Daughter;fontSource=https%3A%2F%2Ffonts.googleapis.com%2Fcss%3Ffamily%3DArchitects%2BDaughter;" edge="1" parent="1" source="OkM7V425J6L5PL9TbQG4-23" target="OkM7V425J6L5PL9TbQG4-28">
          <mxGeometry relative="1" as="geometry" />
        </mxCell>
        <mxCell id="A5gDfUTgFIgMlFk51IUg-10" style="edgeStyle=orthogonalEdgeStyle;rounded=0;sketch=1;hachureGap=4;jiggle=2;curveFitting=1;orthogonalLoop=1;jettySize=auto;html=1;exitX=1;exitY=0.25;exitDx=0;exitDy=0;entryX=-0.054;entryY=0.837;entryDx=0;entryDy=0;entryPerimeter=0;fontFamily=Architects Daughter;fontSource=https%3A%2F%2Ffonts.googleapis.com%2Fcss%3Ffamily%3DArchitects%2BDaughter;" edge="1" parent="1" source="OkM7V425J6L5PL9TbQG4-21" target="OkM7V425J6L5PL9TbQG4-28">
          <mxGeometry relative="1" as="geometry" />
        </mxCell>
        <mxCell id="A5gDfUTgFIgMlFk51IUg-15" value="Centralised Seeder run on a single node at a time every 30 minutes&amp;nbsp;&amp;nbsp;" style="text;html=1;align=center;verticalAlign=middle;whiteSpace=wrap;rounded=0;fontFamily=Architects Daughter;fontSource=https%3A%2F%2Ffonts.googleapis.com%2Fcss%3Ffamily%3DArchitects%2BDaughter;" vertex="1" parent="1">
          <mxGeometry x="-720" y="490" width="76" height="120" as="geometry" />
        </mxCell>
        <mxCell id="A5gDfUTgFIgMlFk51IUg-18" value="Supervisor -&amp;gt;&lt;br&gt;Genserver" style="ellipse;whiteSpace=wrap;html=1;sketch=1;hachureGap=4;jiggle=2;curveFitting=1;fontFamily=Architects Daughter;fontSource=https%3A%2F%2Ffonts.googleapis.com%2Fcss%3Ffamily%3DArchitects%2BDaughter;" vertex="1" parent="1">
          <mxGeometry x="-610" y="470" width="90" height="60" as="geometry" />
        </mxCell>
        <mxCell id="A5gDfUTgFIgMlFk51IUg-21" value="" style="endArrow=none;dashed=1;html=1;rounded=0;sketch=1;hachureGap=4;jiggle=2;curveFitting=1;fontFamily=Architects Daughter;fontSource=https%3A%2F%2Ffonts.googleapis.com%2Fcss%3Ffamily%3DArchitects%2BDaughter;" edge="1" parent="1">
          <mxGeometry width="50" height="50" relative="1" as="geometry">
            <mxPoint x="-565" y="675" as="sourcePoint" />
            <mxPoint x="-565.33" y="625" as="targetPoint" />
          </mxGeometry>
        </mxCell>
        <mxCell id="A5gDfUTgFIgMlFk51IUg-22" value="Supervisor -&amp;gt;&lt;br&gt;Genserver" style="ellipse;whiteSpace=wrap;html=1;sketch=1;hachureGap=4;jiggle=2;curveFitting=1;fontFamily=Architects Daughter;fontSource=https%3A%2F%2Ffonts.googleapis.com%2Fcss%3Ffamily%3DArchitects%2BDaughter;" vertex="1" parent="1">
          <mxGeometry x="-607.5" y="550" width="90" height="60" as="geometry" />
        </mxCell>
        <mxCell id="A5gDfUTgFIgMlFk51IUg-23" value="Supervisor -&amp;gt;&lt;br&gt;Genserver" style="ellipse;whiteSpace=wrap;html=1;sketch=1;hachureGap=4;jiggle=2;curveFitting=1;fontFamily=Architects Daughter;fontSource=https%3A%2F%2Ffonts.googleapis.com%2Fcss%3Ffamily%3DArchitects%2BDaughter;" vertex="1" parent="1">
          <mxGeometry x="-607.5" y="694.96" width="90" height="60" as="geometry" />
        </mxCell>
        <mxCell id="A5gDfUTgFIgMlFk51IUg-24" value="Node 1" style="text;html=1;align=center;verticalAlign=middle;resizable=0;points=[];autosize=1;strokeColor=none;fillColor=none;fontFamily=Architects Daughter;fontSource=https%3A%2F%2Ffonts.googleapis.com%2Fcss%3Ffamily%3DArchitects%2BDaughter;" vertex="1" parent="1">
          <mxGeometry x="-600" y="450" width="60" height="30" as="geometry" />
        </mxCell>
        <mxCell id="A5gDfUTgFIgMlFk51IUg-25" value="Node 2" style="text;html=1;align=center;verticalAlign=middle;resizable=0;points=[];autosize=1;strokeColor=none;fillColor=none;fontFamily=Architects Daughter;fontSource=https%3A%2F%2Ffonts.googleapis.com%2Fcss%3Ffamily%3DArchitects%2BDaughter;" vertex="1" parent="1">
          <mxGeometry x="-595" y="530" width="60" height="30" as="geometry" />
        </mxCell>
        <mxCell id="A5gDfUTgFIgMlFk51IUg-26" value="Node n" style="text;html=1;align=center;verticalAlign=middle;resizable=0;points=[];autosize=1;strokeColor=none;fillColor=none;fontFamily=Architects Daughter;fontSource=https%3A%2F%2Ffonts.googleapis.com%2Fcss%3Ffamily%3DArchitects%2BDaughter;" vertex="1" parent="1">
          <mxGeometry x="-595" y="670" width="60" height="30" as="geometry" />
        </mxCell>
        <mxCell id="A5gDfUTgFIgMlFk51IUg-27" style="edgeStyle=orthogonalEdgeStyle;rounded=0;sketch=1;hachureGap=4;jiggle=2;curveFitting=1;orthogonalLoop=1;jettySize=auto;html=1;exitX=1;exitY=0.5;exitDx=0;exitDy=0;fontFamily=Architects Daughter;fontSource=https%3A%2F%2Ffonts.googleapis.com%2Fcss%3Ffamily%3DArchitects%2BDaughter;" edge="1" parent="1" source="OkM7V425J6L5PL9TbQG4-37" target="OkM7V425J6L5PL9TbQG4-37">
          <mxGeometry relative="1" as="geometry" />
        </mxCell>
        <mxCell id="A5gDfUTgFIgMlFk51IUg-102" style="edgeStyle=orthogonalEdgeStyle;rounded=0;sketch=1;hachureGap=4;jiggle=2;curveFitting=1;orthogonalLoop=1;jettySize=auto;html=1;exitX=0.25;exitY=0;exitDx=0;exitDy=0;entryX=0.25;entryY=1;entryDx=0;entryDy=0;fontFamily=Architects Daughter;fontSource=https%3A%2F%2Ffonts.googleapis.com%2Fcss%3Ffamily%3DArchitects%2BDaughter;" edge="1" parent="1" source="A5gDfUTgFIgMlFk51IUg-44" target="OkM7V425J6L5PL9TbQG4-33">
          <mxGeometry relative="1" as="geometry" />
        </mxCell>
        <mxCell id="A5gDfUTgFIgMlFk51IUg-103" style="edgeStyle=orthogonalEdgeStyle;rounded=0;sketch=1;hachureGap=4;jiggle=2;curveFitting=1;orthogonalLoop=1;jettySize=auto;html=1;exitX=0.5;exitY=0;exitDx=0;exitDy=0;entryX=0.75;entryY=1;entryDx=0;entryDy=0;fontFamily=Architects Daughter;fontSource=https%3A%2F%2Ffonts.googleapis.com%2Fcss%3Ffamily%3DArchitects%2BDaughter;" edge="1" parent="1" source="A5gDfUTgFIgMlFk51IUg-44" target="OkM7V425J6L5PL9TbQG4-33">
          <mxGeometry relative="1" as="geometry" />
        </mxCell>
        <mxCell id="A5gDfUTgFIgMlFk51IUg-44" value="A fail safe mechanism to retry in case of failure of nodes" style="rounded=1;whiteSpace=wrap;html=1;sketch=1;hachureGap=4;jiggle=2;curveFitting=1;fontFamily=Architects Daughter;fontSource=https%3A%2F%2Ffonts.googleapis.com%2Fcss%3Ffamily%3DArchitects%2BDaughter;direction=south;" vertex="1" parent="1">
          <mxGeometry x="-130" y="480" width="60" height="256.63" as="geometry" />
        </mxCell>
        <mxCell id="A5gDfUTgFIgMlFk51IUg-101" style="edgeStyle=orthogonalEdgeStyle;rounded=0;sketch=1;hachureGap=4;jiggle=2;curveFitting=1;orthogonalLoop=1;jettySize=auto;html=1;exitX=0.625;exitY=0.2;exitDx=0;exitDy=0;exitPerimeter=0;entryX=1;entryY=0.25;entryDx=0;entryDy=0;fontFamily=Architects Daughter;fontSource=https%3A%2F%2Ffonts.googleapis.com%2Fcss%3Ffamily%3DArchitects%2BDaughter;" edge="1" parent="1" source="A5gDfUTgFIgMlFk51IUg-45" target="A5gDfUTgFIgMlFk51IUg-44">
          <mxGeometry relative="1" as="geometry" />
        </mxCell>
        <mxCell id="A5gDfUTgFIgMlFk51IUg-45" value="send failures to redis" style="ellipse;shape=cloud;whiteSpace=wrap;html=1;sketch=1;hachureGap=4;jiggle=2;curveFitting=1;fontFamily=Architects Daughter;fontSource=https%3A%2F%2Ffonts.googleapis.com%2Fcss%3Ffamily%3DArchitects%2BDaughter;" vertex="1" parent="1">
          <mxGeometry x="-150" y="755" width="90" height="60" as="geometry" />
        </mxCell>
        <mxCell id="A5gDfUTgFIgMlFk51IUg-48" value="Sync process triggers" style="whiteSpace=wrap;html=1;shape=mxgraph.basic.cloud_callout;sketch=1;hachureGap=4;jiggle=2;curveFitting=1;fontFamily=Architects Daughter;fontSource=https%3A%2F%2Ffonts.googleapis.com%2Fcss%3Ffamily%3DArchitects%2BDaughter;" vertex="1" parent="1">
          <mxGeometry x="-20" y="407.17" width="110" height="70" as="geometry" />
        </mxCell>
        <mxCell id="A5gDfUTgFIgMlFk51IUg-49" value="Consistency test mechanism will be implemented here once sync process is done" style="shape=callout;whiteSpace=wrap;html=1;perimeter=calloutPerimeter;sketch=1;hachureGap=4;jiggle=2;curveFitting=1;fontFamily=Architects Daughter;fontSource=https%3A%2F%2Ffonts.googleapis.com%2Fcss%3Ffamily%3DArchitects%2BDaughter;" vertex="1" parent="1">
          <mxGeometry x="-163" y="400" width="130" height="90" as="geometry" />
        </mxCell>
        <mxCell id="A5gDfUTgFIgMlFk51IUg-76" style="edgeStyle=orthogonalEdgeStyle;rounded=0;sketch=1;hachureGap=4;jiggle=2;curveFitting=1;orthogonalLoop=1;jettySize=auto;html=1;exitX=1;exitY=0.5;exitDx=0;exitDy=0;exitPerimeter=0;entryX=0.5;entryY=1;entryDx=0;entryDy=0;fontFamily=Architects Daughter;fontSource=https%3A%2F%2Ffonts.googleapis.com%2Fcss%3Ffamily%3DArchitects%2BDaughter;" edge="1" parent="1" source="A5gDfUTgFIgMlFk51IUg-71" target="A5gDfUTgFIgMlFk51IUg-75">
          <mxGeometry relative="1" as="geometry" />
        </mxCell>
        <mxCell id="A5gDfUTgFIgMlFk51IUg-71" value="" style="sketch=0;points=[[0,0,0],[0.25,0,0],[0.5,0,0],[0.75,0,0],[1,0,0],[0,1,0],[0.25,1,0],[0.5,1,0],[0.75,1,0],[1,1,0],[0,0.25,0],[0,0.5,0],[0,0.75,0],[1,0.25,0],[1,0.5,0],[1,0.75,0]];outlineConnect=0;fontColor=#232F3E;fillColor=#8C4FFF;strokeColor=#ffffff;dashed=0;verticalLabelPosition=bottom;verticalAlign=top;align=center;html=1;fontSize=12;fontStyle=0;aspect=fixed;shape=mxgraph.aws4.resourceIcon;resIcon=mxgraph.aws4.managed_streaming_for_kafka;hachureGap=4;jiggle=2;curveFitting=1;fontFamily=Architects Daughter;fontSource=https%3A%2F%2Ffonts.googleapis.com%2Fcss%3Ffamily%3DArchitects%2BDaughter;" vertex="1" parent="1">
          <mxGeometry x="-500" y="541" width="78" height="78" as="geometry" />
        </mxCell>
        <mxCell id="A5gDfUTgFIgMlFk51IUg-72" style="edgeStyle=orthogonalEdgeStyle;rounded=0;sketch=1;hachureGap=4;jiggle=2;curveFitting=1;orthogonalLoop=1;jettySize=auto;html=1;exitX=1;exitY=0.5;exitDx=0;exitDy=0;entryX=0.5;entryY=0;entryDx=0;entryDy=0;entryPerimeter=0;fontFamily=Architects Daughter;fontSource=https%3A%2F%2Ffonts.googleapis.com%2Fcss%3Ffamily%3DArchitects%2BDaughter;" edge="1" parent="1" source="A5gDfUTgFIgMlFk51IUg-18" target="A5gDfUTgFIgMlFk51IUg-71">
          <mxGeometry relative="1" as="geometry" />
        </mxCell>
        <mxCell id="A5gDfUTgFIgMlFk51IUg-73" style="edgeStyle=orthogonalEdgeStyle;rounded=0;sketch=1;hachureGap=4;jiggle=2;curveFitting=1;orthogonalLoop=1;jettySize=auto;html=1;exitX=1;exitY=0.5;exitDx=0;exitDy=0;entryX=0;entryY=0.5;entryDx=0;entryDy=0;entryPerimeter=0;fontFamily=Architects Daughter;fontSource=https%3A%2F%2Ffonts.googleapis.com%2Fcss%3Ffamily%3DArchitects%2BDaughter;" edge="1" parent="1" source="A5gDfUTgFIgMlFk51IUg-22" target="A5gDfUTgFIgMlFk51IUg-71">
          <mxGeometry relative="1" as="geometry" />
        </mxCell>
        <mxCell id="A5gDfUTgFIgMlFk51IUg-74" style="edgeStyle=orthogonalEdgeStyle;rounded=0;sketch=1;hachureGap=4;jiggle=2;curveFitting=1;orthogonalLoop=1;jettySize=auto;html=1;exitX=1;exitY=0.5;exitDx=0;exitDy=0;entryX=0.5;entryY=1;entryDx=0;entryDy=0;entryPerimeter=0;fontFamily=Architects Daughter;fontSource=https%3A%2F%2Ffonts.googleapis.com%2Fcss%3Ffamily%3DArchitects%2BDaughter;" edge="1" parent="1" source="A5gDfUTgFIgMlFk51IUg-23" target="A5gDfUTgFIgMlFk51IUg-71">
          <mxGeometry relative="1" as="geometry">
            <Array as="points">
              <mxPoint x="-517" y="670" />
              <mxPoint x="-461" y="670" />
            </Array>
          </mxGeometry>
        </mxCell>
        <mxCell id="A5gDfUTgFIgMlFk51IUg-84" style="edgeStyle=orthogonalEdgeStyle;rounded=0;sketch=1;hachureGap=4;jiggle=2;curveFitting=1;orthogonalLoop=1;jettySize=auto;html=1;exitX=0.25;exitY=0;exitDx=0;exitDy=0;entryX=0;entryY=0.5;entryDx=0;entryDy=0;fontFamily=Architects Daughter;fontSource=https%3A%2F%2Ffonts.googleapis.com%2Fcss%3Ffamily%3DArchitects%2BDaughter;" edge="1" parent="1" source="A5gDfUTgFIgMlFk51IUg-75" target="A5gDfUTgFIgMlFk51IUg-78">
          <mxGeometry relative="1" as="geometry" />
        </mxCell>
        <mxCell id="A5gDfUTgFIgMlFk51IUg-85" style="edgeStyle=orthogonalEdgeStyle;rounded=0;sketch=1;hachureGap=4;jiggle=2;curveFitting=1;orthogonalLoop=1;jettySize=auto;html=1;exitX=0.5;exitY=0;exitDx=0;exitDy=0;entryX=0;entryY=0.75;entryDx=0;entryDy=0;fontFamily=Architects Daughter;fontSource=https%3A%2F%2Ffonts.googleapis.com%2Fcss%3Ffamily%3DArchitects%2BDaughter;" edge="1" parent="1" source="A5gDfUTgFIgMlFk51IUg-75" target="A5gDfUTgFIgMlFk51IUg-80">
          <mxGeometry relative="1" as="geometry" />
        </mxCell>
        <mxCell id="A5gDfUTgFIgMlFk51IUg-86" style="edgeStyle=orthogonalEdgeStyle;rounded=0;sketch=1;hachureGap=4;jiggle=2;curveFitting=1;orthogonalLoop=1;jettySize=auto;html=1;exitX=0.25;exitY=0;exitDx=0;exitDy=0;entryX=0;entryY=0.5;entryDx=0;entryDy=0;fontFamily=Architects Daughter;fontSource=https%3A%2F%2Ffonts.googleapis.com%2Fcss%3Ffamily%3DArchitects%2BDaughter;" edge="1" parent="1" source="A5gDfUTgFIgMlFk51IUg-75" target="A5gDfUTgFIgMlFk51IUg-79">
          <mxGeometry relative="1" as="geometry" />
        </mxCell>
        <mxCell id="A5gDfUTgFIgMlFk51IUg-87" style="edgeStyle=orthogonalEdgeStyle;rounded=0;sketch=1;hachureGap=4;jiggle=2;curveFitting=1;orthogonalLoop=1;jettySize=auto;html=1;exitX=0.75;exitY=0;exitDx=0;exitDy=0;entryX=0;entryY=0.5;entryDx=0;entryDy=0;fontFamily=Architects Daughter;fontSource=https%3A%2F%2Ffonts.googleapis.com%2Fcss%3Ffamily%3DArchitects%2BDaughter;" edge="1" parent="1" source="A5gDfUTgFIgMlFk51IUg-75" target="A5gDfUTgFIgMlFk51IUg-81">
          <mxGeometry relative="1" as="geometry" />
        </mxCell>
        <mxCell id="A5gDfUTgFIgMlFk51IUg-88" style="edgeStyle=orthogonalEdgeStyle;rounded=0;sketch=1;hachureGap=4;jiggle=2;curveFitting=1;orthogonalLoop=1;jettySize=auto;html=1;exitX=0.75;exitY=0;exitDx=0;exitDy=0;entryX=0;entryY=0.5;entryDx=0;entryDy=0;fontFamily=Architects Daughter;fontSource=https%3A%2F%2Ffonts.googleapis.com%2Fcss%3Ffamily%3DArchitects%2BDaughter;" edge="1" parent="1" source="A5gDfUTgFIgMlFk51IUg-75" target="A5gDfUTgFIgMlFk51IUg-82">
          <mxGeometry relative="1" as="geometry" />
        </mxCell>
        <mxCell id="A5gDfUTgFIgMlFk51IUg-75" value="Centralised&lt;br&gt;Dynamic&lt;br&gt;Supervisor" style="rounded=1;whiteSpace=wrap;html=1;sketch=1;hachureGap=4;jiggle=2;curveFitting=1;fontFamily=Architects Daughter;fontSource=https%3A%2F%2Ffonts.googleapis.com%2Fcss%3Ffamily%3DArchitects%2BDaughter;direction=south;" vertex="1" parent="1">
          <mxGeometry x="-380" y="480" width="70" height="270" as="geometry" />
        </mxCell>
        <mxCell id="A5gDfUTgFIgMlFk51IUg-95" style="edgeStyle=orthogonalEdgeStyle;rounded=0;sketch=1;hachureGap=4;jiggle=2;curveFitting=1;orthogonalLoop=1;jettySize=auto;html=1;exitX=1;exitY=0.5;exitDx=0;exitDy=0;entryX=0.25;entryY=1;entryDx=0;entryDy=0;fontFamily=Architects Daughter;fontSource=https%3A%2F%2Ffonts.googleapis.com%2Fcss%3Ffamily%3DArchitects%2BDaughter;" edge="1" parent="1" source="A5gDfUTgFIgMlFk51IUg-78" target="A5gDfUTgFIgMlFk51IUg-44">
          <mxGeometry relative="1" as="geometry" />
        </mxCell>
        <mxCell id="A5gDfUTgFIgMlFk51IUg-78" value=".com process" style="rounded=0;whiteSpace=wrap;html=1;sketch=1;hachureGap=4;jiggle=2;curveFitting=1;fontFamily=Architects Daughter;fontSource=https%3A%2F%2Ffonts.googleapis.com%2Fcss%3Ffamily%3DArchitects%2BDaughter;" vertex="1" parent="1">
          <mxGeometry x="-270" y="480" width="70" height="39" as="geometry" />
        </mxCell>
        <mxCell id="A5gDfUTgFIgMlFk51IUg-96" style="edgeStyle=orthogonalEdgeStyle;rounded=0;sketch=1;hachureGap=4;jiggle=2;curveFitting=1;orthogonalLoop=1;jettySize=auto;html=1;exitX=1;exitY=0.5;exitDx=0;exitDy=0;fontFamily=Architects Daughter;fontSource=https%3A%2F%2Ffonts.googleapis.com%2Fcss%3Ffamily%3DArchitects%2BDaughter;" edge="1" parent="1" source="A5gDfUTgFIgMlFk51IUg-79">
          <mxGeometry relative="1" as="geometry">
            <mxPoint x="-130" y="540" as="targetPoint" />
          </mxGeometry>
        </mxCell>
        <mxCell id="A5gDfUTgFIgMlFk51IUg-79" value=".io&lt;br&gt;process" style="rounded=0;whiteSpace=wrap;html=1;sketch=1;hachureGap=4;jiggle=2;curveFitting=1;fontFamily=Architects Daughter;fontSource=https%3A%2F%2Ffonts.googleapis.com%2Fcss%3Ffamily%3DArchitects%2BDaughter;" vertex="1" parent="1">
          <mxGeometry x="-270" y="530.5" width="70" height="39" as="geometry" />
        </mxCell>
        <mxCell id="A5gDfUTgFIgMlFk51IUg-97" style="edgeStyle=orthogonalEdgeStyle;rounded=0;sketch=1;hachureGap=4;jiggle=2;curveFitting=1;orthogonalLoop=1;jettySize=auto;html=1;exitX=1;exitY=0.5;exitDx=0;exitDy=0;entryX=0.5;entryY=1;entryDx=0;entryDy=0;fontFamily=Architects Daughter;fontSource=https%3A%2F%2Ffonts.googleapis.com%2Fcss%3Ffamily%3DArchitects%2BDaughter;" edge="1" parent="1" source="A5gDfUTgFIgMlFk51IUg-80" target="A5gDfUTgFIgMlFk51IUg-44">
          <mxGeometry relative="1" as="geometry" />
        </mxCell>
        <mxCell id="A5gDfUTgFIgMlFk51IUg-80" value=".tech process" style="rounded=0;whiteSpace=wrap;html=1;sketch=1;hachureGap=4;jiggle=2;curveFitting=1;fontFamily=Architects Daughter;fontSource=https%3A%2F%2Ffonts.googleapis.com%2Fcss%3Ffamily%3DArchitects%2BDaughter;" vertex="1" parent="1">
          <mxGeometry x="-270" y="585" width="70" height="39" as="geometry" />
        </mxCell>
        <mxCell id="A5gDfUTgFIgMlFk51IUg-98" style="edgeStyle=orthogonalEdgeStyle;rounded=0;sketch=1;hachureGap=4;jiggle=2;curveFitting=1;orthogonalLoop=1;jettySize=auto;html=1;exitX=1;exitY=0.5;exitDx=0;exitDy=0;entryX=0.75;entryY=1;entryDx=0;entryDy=0;fontFamily=Architects Daughter;fontSource=https%3A%2F%2Ffonts.googleapis.com%2Fcss%3Ffamily%3DArchitects%2BDaughter;" edge="1" parent="1" source="A5gDfUTgFIgMlFk51IUg-81" target="A5gDfUTgFIgMlFk51IUg-44">
          <mxGeometry relative="1" as="geometry" />
        </mxCell>
        <mxCell id="A5gDfUTgFIgMlFk51IUg-81" value=".edu process" style="rounded=0;whiteSpace=wrap;html=1;sketch=1;hachureGap=4;jiggle=2;curveFitting=1;fontFamily=Architects Daughter;fontSource=https%3A%2F%2Ffonts.googleapis.com%2Fcss%3Ffamily%3DArchitects%2BDaughter;" vertex="1" parent="1">
          <mxGeometry x="-270" y="640.5" width="70" height="39" as="geometry" />
        </mxCell>
        <mxCell id="A5gDfUTgFIgMlFk51IUg-99" style="edgeStyle=orthogonalEdgeStyle;rounded=0;sketch=1;hachureGap=4;jiggle=2;curveFitting=1;orthogonalLoop=1;jettySize=auto;html=1;exitX=1;exitY=0.5;exitDx=0;exitDy=0;entryX=0.75;entryY=1;entryDx=0;entryDy=0;fontFamily=Architects Daughter;fontSource=https%3A%2F%2Ffonts.googleapis.com%2Fcss%3Ffamily%3DArchitects%2BDaughter;" edge="1" parent="1" source="A5gDfUTgFIgMlFk51IUg-82" target="A5gDfUTgFIgMlFk51IUg-44">
          <mxGeometry relative="1" as="geometry" />
        </mxCell>
        <mxCell id="A5gDfUTgFIgMlFk51IUg-82" value=".in&lt;br&gt;&amp;nbsp;process" style="rounded=0;whiteSpace=wrap;html=1;sketch=1;hachureGap=4;jiggle=2;curveFitting=1;fontFamily=Architects Daughter;fontSource=https%3A%2F%2Ffonts.googleapis.com%2Fcss%3Ffamily%3DArchitects%2BDaughter;" vertex="1" parent="1">
          <mxGeometry x="-270" y="705" width="70" height="39" as="geometry" />
        </mxCell>
        <mxCell id="A5gDfUTgFIgMlFk51IUg-90" value="Domain specific process and in future we can spawn further process to handle more domains.Also more process can be spawned for a particular domain if the workload is more for that domain. Example after sending 5 events of same domain to same process we can consider spawning new process for handling further events of that domain." style="shape=callout;whiteSpace=wrap;html=1;perimeter=calloutPerimeter;sketch=1;hachureGap=4;jiggle=2;curveFitting=1;fontFamily=Architects Daughter;fontSource=https%3A%2F%2Ffonts.googleapis.com%2Fcss%3Ffamily%3DArchitects%2BDaughter;" vertex="1" parent="1">
          <mxGeometry x="-535" y="370" width="370" height="130" as="geometry" />
        </mxCell>
        <mxCell id="A5gDfUTgFIgMlFk51IUg-100" style="edgeStyle=orthogonalEdgeStyle;rounded=0;sketch=1;hachureGap=4;jiggle=2;curveFitting=1;orthogonalLoop=1;jettySize=auto;html=1;exitX=1;exitY=0.75;exitDx=0;exitDy=0;entryX=0.4;entryY=0.1;entryDx=0;entryDy=0;entryPerimeter=0;fontFamily=Architects Daughter;fontSource=https%3A%2F%2Ffonts.googleapis.com%2Fcss%3Ffamily%3DArchitects%2BDaughter;" edge="1" parent="1" source="A5gDfUTgFIgMlFk51IUg-44" target="A5gDfUTgFIgMlFk51IUg-45">
          <mxGeometry relative="1" as="geometry" />
        </mxCell>
      </root>
    </mxGraphModel>
  </diagram>
</mxfile>
